<mxfile host="app.diagrams.net" modified="2021-07-16T01:46:38.971Z" agent="5.0 (Windows NT 10.0; Win64; x64) AppleWebKit/537.36 (KHTML, like Gecko) Chrome/89.0.4389.128 Safari/537.36" etag="RzoC7HxXe5jXzA8sMUzS" version="14.7.6" type="github">
  <diagram id="KI7Z4RSLJQWdqkNd5LZo" name="Page-1">
    <mxGraphModel dx="1422" dy="705" grid="1" gridSize="10" guides="1" tooltips="1" connect="1" arrows="1" fold="1" page="1" pageScale="1" pageWidth="827" pageHeight="1169" math="0" shadow="0">
      <root>
        <mxCell id="0" />
        <mxCell id="1" parent="0" />
        <mxCell id="zqUgVHbuWuNYpNrLX5ac-1" value="" style="shape=image;verticalLabelPosition=bottom;labelBackgroundColor=#ffffff;verticalAlign=top;aspect=fixed;imageAspect=0;image=data:image/png,iVBORw0KGgoAAAANSUhEUgAAAX0AAACPCAYAAAAWVAv3AAAgAElEQVR4Ae2daa8kNxWGbzIhYQmEJWKdOySZJCwKCOaGPYQIjUYjFEVCKIomIxTEh3yIEH+AD/DPGz0180xOe1zVtfbtrjqWql122cf26+PXx66lL3bpEoFEIBFIBDaDwMVmWpoNTQQSgUQgEdgl6acSJAKJQCKwIQSS9DfU2dnURCARSASS9FMHEoFEIBHYEAJJ+hvq7GxqIpAIJAJJ+qkDiUAikAhsCIEk/Q11djY1EUgEEoEk/dSBRCARSAQ2hECS/oY6O5uaCCQCiUCSfupAIpAIJAIbQiBJf0OdnU1NBBKBRCBJP3UgEUgEEoENIZCkv6HOzqYmAolAIpCknzpwUghcXFzsPPpU7KpJf/VU0v89vHoiR3n4Vw//91TajEgEtoRAkv6WevvM2noJoV993Frrj68udjdv3txdXDxN+mS6uLhszZsXEoGtIpCkv9WeP5N2txE6ljzu4f3LKuk/svQvd/f//d8zaWlWMxE4DgJJ+sfBOUsZgcC/7tUJHVF3ghXfNjGkpT8C9MyyegSS9FffxefdwIub96sNcNunbWLQ0r/72X+q+TMyEdgqAkn6W+35M2g3N15r7jJY+Vxvt/Q/vyncJqsmP+MSgTUjUB9Va25xtu0sEOAmbs3dv7kf32bpl3kfpbvYXd77V3kpw4nAphDYH0Gbano29lQRaB7DrGzrtBF8m6Vfto+nfdq2i8q0GU4E1opAkv5ae/ZM21Va8mUz4jP35XmZthbuO0HU8mZcIrAGBJL019CLK2kDhD+GlPvmaeRXVhArgS+bkQj0QiBJvxdMmWhpBJqtl5aXrLrKbtvy+fhq/8Us9/TzjdwuNPPaFhBI0t9CL59BG5u3b8MnGD7fuqm/bRub1GbpP/pEg0/w7E8CMX+eJwJbQmA06f/jH//YEk7Z1kQgEUgEnkLg61//+lNxpx4xivRfeeWVvXbdvXt3L5yBRCARSATWisB77733pGmbIf0XXnih+gXDz5fkLqnTT0xSB1IH1qsDzz777JMJ4FxOZrH0f/GLX5xLe7OeiUAikAhMQmCTlj6I5Z7+JL3JzIlAIrACBDazvVPu6a+g77IJiUAikAgMRmAzpA8yaekP1o/MkAgkAitDYDOkn5b+yjQ3m5MIJAKjENgM6YNOWvqjdCQzJQKJwIoQ2Azpp6W/Iq3NpiQCicBoBDZD+iCUlv5oPcmMiUAisBIENkP6aemvRGOzGYlAIjAJgc2QPiilpT9JVzJzIpAIrACBzZB+Wvor0NZsQiKQCExGYDOkD1Jp6U/WlxSQCCQCZ47AZkg/Lf0z19SsfiKQCMyCwGZIH7S09NN/9L8CiUPikONiO7zgjPHiiy82p3ON/08//VTRi/mjvrJ569at3Y0bN5rPK/Np0TwSg9SB1IEt6QCfy37mmWd2zz333I6djynHSy+9tPvCF77wRMZibP9Y8CjSJ+93vvOdRsS9e/fS3+12iUPqAQMh9WBbenDnzp2G/6b+YEQfy40i/W9/+9vHqt9Zl+N3t0v/rBuVlV8tAqmnw7v2q1/96vBMRQ4MaFYOx3KjS3IP61gVPadyvvKVr+y++93v7rjJ478msfQl/PLLLz9ZJZ1Tm7Ku60QAwsGI+8Y3vtFsVaiv3qBEl9O1IyBO7SkOX/nyl798+qSfT++0d+Tzzz+/42hz/MsYfzdJR6dLBK4TAaxU9pJ/9KMfVavxm9/8ptFV9q3T1RGYg/QvLy93X/rSl+oFLBCblv7MoN6+fbu5wfP+++9XJfMn8twAYkClSwSuG4FD2wrsNbM6TVdHYA7SR/Ix/3J2FOmnpV9XgBj79ttv723vMLhu3rwZk+R5InASCLzzzjvNlqNbO/hs+6DD6boR2AzpuwcVlSTPL57s3ycWiUXqwDZ0gO2xOdzJW/o+rlne7c/we03/Jw6JA4qQerBuPWCLdo4b3X/961/nmDd6yxi1vYP0fHqnN8aZMBFIBFaKwGa2d3JPf6UanM1KBBKBQQhshvRBJS39QbqRiROBRGCFCGyG9H0jN/cs171nmf2b/QtPpx7U9YA9/TnetzmLPX1e6nj11VebefvnP/95+rvdLnFIPWAgpB5sSw828/QOr2zzBM+UL8tl3mlf5kv8Er/UgevVAd67metN2pN/ZBOLJvf0mwVO/iQCicCGEdjMnj4WRrpEIBFIBLaOwBykfxZ7+nR0WvpbV/dsfyKQCMxB+qB48ts7aemnsicCiUAisGu+rzUHDidP+jQyLf05ujplJAKJwDkjkJb+Ofde1j0RSATOCgH+qGjJJ5h4QvH3v/99JyZzkH7u6XdCnBcTgUQgEdjtfvCDHzQwuOOwlO97F22Yz0H6yD757Z3c029TgYxPBBKBpRF4/fXXly5iT75fINiLfBzYDOnTXmfWGhAZlwgkAonAkgi4JfLPf/6zKWbspyK05Mv8H374YSP3EM9thvTT0l9SnVN2IpAIdCFQboX88Ic/bJKXxH0ozH8Ds29fpiv/M7iL7+YgfSewrjbPeS2/pz8nmikrEUgEjoKARClhjy20nECUY3xa+o8R6Zr5BC39RCARSASWQEBCVvZY4nfiUE70YxldfDeHpU+5sbxYjyXO09JfAtWKzPv37+9eeuml5hEzLqtIQ/25lKxSxV5RDLA52vGtb32rV3mZKBGoISBhjyV8ZbaRrfFp6T9GSqISuPS7EeBT1JD1XH+WzdMEfOn02I428J+gc7TjmWee2dGOl19++djNWLw8nh+nfWNxEpvFK3qmBUjIVn8K8ZeykOmEovwuvpvDCCvLs9yl/LT0l0L2sVwI/4UXXtg999xzk4hAAoEQkMUnXbseJZu7WbSDP4y4cePGaDKzDfi04/nnn5/t07Rzt3esPD63S/88++yzTb/T90MP8iID98Ybb4ytyqrzSZRTCB+AaqQf49PSf6xGXTPfqjVtYON4nhiyZBDP6X75y182Mo9F+ljjkBCEP6fjKQmw+d73vjen2GuTxUT84osv7l577bVJdXj//fcbGchiK62NmCYV0jOzK1QmaVYwp+BKPMYSvxNHrU2xjC6+m8PSp/xYXq0+c8alpT8DmhB7tGLdsmALRovP534trgwbf/fuXU8bv3wRxbDWoAQD4cQ6dCnqXgEhUMrwEmVhlUNC9+7dM7rxy7AXywFlvb1uGNn8+5BKz/nUdljG3D79GutGv+uYELHoJSAsRAjh7bffbpKAHY54zn0s0PhPP/20iRcX5bK6Antdm655fS7/wYMH1ZUp/XUKTv0S77F1Uu/K/Manpf8YmTGEUoK6pjADkYEJIWARu9/OAMFCcnkfcWOwxzB4QCqk1b311ltNGrYMcBAI5xzIVfa7777bEIaESR3GWCDUqSbDsrj5imzrQ50Il+3gOvE6wqShPTgIjzC+JAqGP/3pT5t7BtSBMpEhKSrrOn36lYnRI96MhvSpd3T0AW1ngvec633OleOEa5i86AiTAT51kABNM9V/+PBh0y+UjXzu41Ae5/TXdRO/hGw7pxB/KQuZJZ6lflsuPv0x1ZXlTZV3KP/qLH3+rBinIkz1IdQorwmEH8iKwc6gwEEIDEbJimsMktKyL8OK7GvpQzLIhSgpk3IoEyXGH7oVg4xIsspgC4lzrtPG0rIvw7ajVOTSgjVMmcj+2c9+1pAL9aa8O3fuNH6cPJR9HT6DG/KzPkzy9L39Tl8Qh8UeHQSKM168DsUrw34mPbhw0Nfgh55RJ+LmdpA7zvGkfMrkmuPK+GP76tfUetRIn7YYn5b+457tmvmO3fmxPBSUDzGhmDgVYqrPgHcQxPK4yablFeMZlMRjuTNo4/I8pptyjlwGPOVAPpw7EMABEuJaH4c1qgzTo/TKsB2UOaejvlj0lM0RJ0vKcc+/bzvmrFuU9etf/7rpy7IfwQfrn/FAn9OG0jFJgC+O9rWdI4O9fNLE8fW1r32tmWjAggmYciTiP//5z00fYYFzn2dOh77XJpNvfvObzVi4zvswErLtdXwb7us7XmrpYxmxP8q0c+lmLK8sY+7w6ix9lHWpowa+lpeDAJ+ByQ04HGQMObRZ9jWZxJUWfxlGJoSAwuNTJu7vf/97Q/ZtJNRWnjIgFxzKHGVwDoFpseq3yTNey9Zw2Q6IFIz4hK3ET9qPPvqoCVNmjXyUdywfi556UFfcrVu3GoJ20NvvErL1IsykqfP8nXfe6RXPKoiDb8ygU5QP8X7yySeNT5h4v0FjOVN9jZxSb6k/11ypTS1nbH4JeyzhW24b2Ro/1NL/77/v7y4vLnZXD/5rEY1vfOSmmMDyYtxS56NIv2vmW6qifeT+9re/bSV8rFQGB6CjuHxzA5LBZ1ARz3nslPK8VgdIEuJCPsQAObrSID2kEC1kiENi5TqWX4mne/nugeubjm+NUGfL4WYuZVA2JABRcn2oQwZ5SxkMfLDCKtfRDutDXNku4mwbBGeYtqvgWK7UkwkMB5nRBvCkPLHEAj4FJ+bUi4NwJD/wu7y8fFJVMNE5ORAuz50InRDMw5YX2HiznhWH+FAW/U8diJ/T0d/oPvqMLngzmj5BP7h2nU79oQ5/+MMfdqf27R1Iv3T3Lx8ZozG+4Zc7Hz9ZocdrS54/XbuepR2aAXuKmT0ZgwEwGRAsvTlU1Abkxx2ihaDvNXwmB/MSNn9bZSUpymagx8FOPThcCWD5EdZhCRMu8aTM6GKYwUgeytUx+Bmg1IHBieU+1HXJQDaE85Of/KQRCxHEdtqucgUQ20rG2A7qShsi2dE2Dq7RBrYuTsXRFgibNoAx9dTxtUZ1hTgnKtvGBMi58WLHxMl5GY8M8EZmdKR1QsRXTkwzxznbpLSTOtAHlEVfxYl/jnLGytDSd4XjOB7qz/2VTS360tKvTQS0/eLiqoEgTmRjMembb1+jeuaKFl7PLEdJxs0/BgmKGa1prC/iIXJufJY3Z8mHI005yCAflL+M79sg8lMf/Lkc8jiYnI7lLLMk8SnlK9N97imyTiEvkwDkqGVebm1ZRwnesH6MZ3XHBLMUqVtml//qq682eua4GDsGusoYcy2ursbkH5qn632YuGpTbo3gJXfT6N+6uLV76+4HT1a/xi/pjyJ9KlRaplbSmfNYfjlDshyOShrPrWObH9PG8ymkz940kw0WEyQX5Y45R4bWXls7loiHwGgHpD9HO+gn2sEKYk0OggAjJvkx/Use8rLqAm8t1+vGCD2e4v7yl780KyP6nfGEDk1xp/rPWW2WfhvpX1082g4seWwKNofyjiL9Nkt/rJJPzYdC4dhiYMD88Y9/bMgEBWOf3n179oy7HPVgKUt6CIn83GBkWc61sY7VBfLmIEvah6zrcN///vcbS3aOdjAJxu2R62jPUmXSRxxuB2EN9j2cMMi/Fsf41FiArH0fg+2iKdt3p/ofuVj6T3Pao22csk8vLi4bS7+MXzI8mslKS58wZMC2SmwwymsYEq2dk6/tWoxHViQcgEFedA4WlCvmLdPFPJ5bN30UlXZNJX3l42uhOHEO8d2eivKOfW6/uyUzpP7UlfS045iWzbExojwtY/Hq6/v8/nXUeYkyvWflditPPTHZu4JhpYc+nKurbe8MacvFzftN8mOOh33G7FlbB3qZHEJmPxMgaASzOCTM0wV0NtfZj+Ma8XY2lisEi1XtEzRYAxwQMHHsu5OGtNyxh4gpK5K56akXliSkT5zu0F5glMV+OfXF0Z54TXnpJwKJQDcCX/ziF5uxTirGIzzA+GV8eu+D+HN1U0nfdp886VNRLRcrTRiSZBaHnAGDWZww5M+5T4dws4t4DojfdMgiDfHEmYe4KM/tGhSnJGPD+BwSN88145yw2nzbY37K8lFPr6WfCCQC/RDAuGN1K8Gbi6duuMaKCP8Q6Wn0/epXv1LESfibIX0Js0QdgtV6j9dc6hpXho3v6/tUBFY/5OzjWzzXbBhFwoKQ9PvKJp3PKSMLl6Q/BL1Mmwh8jgDjkHEJOfpwh1e18Enjs/Zeiz5biRiSjEcMQFYLp+KGkj5tkFdsg/xleGl/1PYOlWqz9CX92DDOsZhx+OU1G0m8e390MofOPEwYnPPauaRvGnxJHt+DeBSLlQE3j3h6gDA+cTHMKgRHGRxYGEn6DST5kwgMRoBxxjjmcVTOeWMcxydMWNHzj3KM0/i4aiyE9z4Yn6zU8Rn/jNlTcSXp+/TO5b1/7VXRl7PklUf+5e7uZ/9p0h1a6ewJmxgYRfpDLf2+dew745WWvvJ9eocwoKJMKArpOY+Ax3A81/rAJz2dOueNXOuafiKwBQRu3779hKQ5d/WtcYWRiCHW5SR5xiPuUPouWXNfK0kf+bXHM617LL+ZCM7lRi4VP2Tpx8YtdV6z9LEmcLwBy1Lws88+a8KR2OmAGI7n5udmE/lpZ5L+Uj2YcreCAGMJp2HHx+IgfKz9Pg7jjXGLf0quJP3/Pbyqk/7Vx9Vq83IW7qwtfWZwOsetGWZpwnMezvySvoqkpU/YfUAAZcsoEntXXUjnSkKFTNKv6utRIufSn7KyruS6dKHPtVJuhusIYISBOYd9OpTA/QZQvYTriS1Jn1qUb+T++/7n32Mqa+kbuWX8kuFR2ztUqM3S9+NRkD6DpgbK1AZBxsiW9KM8LXUmHwgcxSKO874HeVyG/u1vf+u09FkR4HzuOP33JuHBY7vR0c/oknoU7w1hKTIh49wuiNeNRwafFIiOOPTIl4NiPu7h9JVr/0fZfc4PPT7cR8Y5pvHje+XXO8+xLdRZvSzrj35Fp0Uf4zh3K+isLf2yUUuHI7ha+pbJVzdxY4nYjuiy9JlQOH784x83TylQHk8r8KSCTyt4PjSMHNzY/JZnfeaSh9woc2z9rI+yIG6+k+TNfNpO/7755psNDmN/kOFLccogTr0wbqgfda9PXgwi2sgEhE7xFEobafSRt6U0TPwYYm4TnUrb2/rv4dX+7gb1varseNgOucbwkv7+dDSgpEOW/gBRk5KWA09Lf5LQInMX6bt6cGXDTSaUk3oQN/RAHnmQ4/lQGWV65ThBldeHhlme00byIZu6DpVhXnzrxQpLC9suoH8hSiewob4v7MWJBNnIxcofKs/0PMxA28uVifWu+baVsjloN0+xpOtGAH3DqAIzJswhN3L5JAvfQ0JfkYOOcbiy6y758NU20jdn/akd+n//swwnT/pdT+/Y2GP5KIJ7+jxeyUA0PFcd6FjKqTkGrvcASIcy+diq6b3eFja+r18+3lbKL+UMfbVfeW7VlfKGhpXXli/Wj4EZ36IGdw4nUieIvr75y7KNnyp3COnz9Arl+nlqzpkIDhFHWfethSFpHH2OM9wEOn7YpmNlUD7XT5+x8gP70sjoEFe9NEffzc1X1YqGyDqThQRtp22WPqTrgCp9BlgZR5g8dGjtWlse8+FHV4bjtbHnXc/pH1JArtfaNaWebfJQ4rGuTWZpIfeVj3XVJrNLRtkGZKAbWmZDfb7Jj4yyHcQxwQyVZ3ruBwyx9J34KBfH+CF/kn6XNjy6Rj+xIgK7vpa+evTgwYNGCOTMOOYtfxxbwTge+GBi8KONTeSAnzlIn+LO2tKnY1TwiB3WL4PXfdx4jTxc+9Of/hSjd7xyTXzbPh75OHQAF8Pe7XfvdqjviqYv6fMVSvJw8AVAJiwGdu2mnW3mZrR5/IiZ7fGbRV6nHgyA2EbTUgZlUSZPSpin3MvmdXiv4TM4WC7XZHKNSYs+iHnKtycpI143T63fKIfryDYPlpj/Dkb7Ig6knzogkFF+BoC4sQNdzMF7iINwxJrywRXrf64V1ZC6nFtav+FT06myLRI+FjS6xYTBeFSf0S+MAPUM/PvILcshvBnSp7Ftlj7KHK+bjs8aM9glfeP95AEDoJZP0je9vvksr8n8+KNOnEvUXB97MKh5A5C6l+VYHm3Cucy3fkx85GFQ1xyER14J1Hxxa4N8TqBet7xSpk9DSESmLycc2+F1BgJYte0tux9qenwmKh1hrN94nTIcUKbT56YsZboFZj6fvvExWdMjy4mROHAb6iOjRvr06xh5lE/7kKvF2FSqxw/ET17b78qhR9ZVJIF8IVgn+bkbpf64ZWL/lv/oZr+5AqRPxmz1bIb0BbLsMAiHgdB2dF1v28bpymM5djCWMekJ04nO3qwYSjkxHM+ph86lIAOUsmqOvDpv8hluy+N1FCZOCkwcUUa5F0naQ0rGJOlEQTmQufgQLusUb5Jar9LH+o5OgjaOFU50ZRnxGue0K5IdE5Z/78ik5l9LkhZZ5T2MUt6hcJw0THuojqbr8rHaXU12pSuvueIs49ccpg/A3HGO32bAtOFwCGsMSgwY9V2eKldSfgqCchhvGkbyRVv5tfhD47GWp4yzvmX8UuE6k/UoTQvNpIQhwBJgry/ll4PXMFYcgzJawFzziEQfz11xYAGQn5uMrhpqbTB925+y1/IY51aNdcKPjye6wojXSwJWln5M67nX8Kmv8frxenlea1ec6HjjWTnRjzdnS5nus8f0DjiX5uYhzRyuXMnMIZe6zv2n5HO0dYwMLWHH9VC/rUzkYiRoKIiXhomWeVt+45kg6LOuiQJZfoVTC17jQnKmPlj0TiBa/G4hshIZ4pQ7JE8treXXrs0dN2pEOYOWlYlkUF5bKhwHb9zTJ576aPkS7nNo6TsRYOV3kX5UQvOObWtsCzKYQJl4prhSJlZ2uYIYKr9U9Kl1RJ4rHAZu3OIq6z+0rqRn4EsC5p9Dbux75Z6jz70N9R1cxhxtYx/sNYyYJLX0OWdrk1XiIUNGnO2ztvSOP2QzZnHqqj5x7ALg5DHCXOfTENa1SdDjJ8rtkbw1ycmTPjXXErAVWvo+F63iRGuWzjM+ntNZ0QKN5zEd8SqNCqBvPQyTDkVUGVEEDixKSCqGOTeOPWyc9cTSdWlqGdG3POJUunh9yDmySlynEmqsH3WZSviQc6no1HHKCg95kj59bB9Q37L+Q/A07VKkjy75AqBlnasP7rUVGPgfOmgz+WuOMQEBQ7D0M1swyPvggw+aMcjDG6SBcNscHMCWDH7bVzYZN9SB6zj3513BGG8Z8Z4C49tJgjKGuHIsDMkb05486TtDxkpzDsFiUbEtgQN4OsI9WTqXTndG9RV4lA3ixfFGpgP9d7/7XXNOHI40LBPpQIjBCcY9MS19wpRLeZJ+I6DnT3mT+Losfaq7BOlPIf420u8JbTVZHDg1S5++RufGHjUM0bHyqaMh8sEQHXN7wIZF/XfvXp8JgrZg4XKg18jxevSpS3mvxDLm9rH0aQtjC1wYt/gcYOc5PuPJMPe8OGcctpElciFY8vG4JfdryINjfLLNQpryKbPYRiZtxj75mGjb0iIPB27k0YmrYbd8DSP7Oklf/rI+S/ujtneoVGmRaunTKYDI4PWcmZQ4FAg/HjEdSlemM4+yuE4H4at0ESQVCp9D0qejUQrjaz711HmdAXBM0i9xrRGWdezj047ophA+ctpIfy5LH32IzvqLyxgfGS7plT1VLt9kQoZ71MqVFPEhM/x4kKcMR73kPIZ9ykf5S/mR3BmH1JF6MO6oM+PNurt6J862tJE+MhhDtIPxBRkjh4kCORiApDm0YsJY5LFN/kejzSEHg1BuIJ179BoW6A/1cU+ff/DCeZ0+G+LMNyRPLe1ZW/rHUlKAU4EE0aUjYToeRYx7uVzvciijDsVQAWhTvGYafJReh9JNcWUZW9zTp8/Kp3dKYh2KMbhGPSA/cVMtrNj3yEQecjm0mg2XPrplHHI8x4cMJeE2Mh2KwaH0lkdd0GPrFM+JM9501Nc0tTIYO44jx6RtZPxyg93rtfxD4pCPY5XEEzn0B+OYcRQNOuJw6gQ+pEu+uLXYJDrwsxnSBwctLjEhjCJI+nSsDsUFUBx+VOSYjnNnPMCMHWU6yuHcPWDjLUsFwrKL5drRpqv5yLKepEeJKK+L9C0PeXOQfonr1ix9B679Q5/McTjA55br+xnKZQyoE/RdJEnO28K00evIcqvSbQflL+VT5xJn60q81j3n6LlpSUPeNt1Hn1ktuOXLY8dMiK4My5VdW/vYIgLPQ4abeJnON3LLPX235dQL0lFPvtUTHf3A9jNyqWt572EzpC8xRnA4RwEk/XittKjKDohp+5yrMFr6yqcjUUCsh6ikKuihDjJd9Jn5fXSyVrc4gbUpfi1fLY5yS7cE6U/Z4mnb3inrPSQc+4WBxdJfZ1+AM1gMPSQu5ekrV6t6LrnIQw8YI5Yxxqee5Cu3paz/nL57+mU9xY74OJ6GkL71hFCRR14mds7pU0nXdDWfcU4e6oF+tO3pk5ctX4kbPqAfuGlcc5Qdy69xF2WhnxzU3UlFeVF3jRvqy19D841N/zTL9JRUWqSE6cgacD1FDkpm+ShCdFEhSyWO6WrnZXrDKGdZjvljPO2XsFyJDPGRZbuUT3twQ+TE9LF+xKPEDIyx8lByLLXowMctmTFyIRTzaSUr3/qLyxgfGXFwI3uqXIiE/i4tfeR6dOmiaWp+zEcZx3DR0qdM68V5GeYacdYTn6PLsXdOPysLv69Dvw49vaMs7rUwwfCfujjHI2SN7rJ7gBHnC1m+T1KuMMmLhU+dcd4MLts5B+kj3x2OprCFf/YZs2dhXZa+N1fdmqEDVKC5fGTitPStNoSmQhqHz4AnHmuOjsTSpQ0eyGGyUiFjXhSui/SjEjBwVC6UYegRZVEHn3IaKsf0kHNJotzYAgfTDPXBviR9Bgz9PlSW6cHXwVmz9EvCjv3T55y+Ly1m4hzIfWTU0iCjdOg98Ry8gMQngSEODvqXyRH8wZG+ATvajy/BmL8mvyxvjjBP16njsey+57Sr1N056qUM6oYTD3Hyeulzsxc8vRcEwSMDHQB/rvnIJv1DuOaQQ185QcARcEV06PAc7uRJn0ZqcdlgwpCmWy8qEYN4bodMFACCVREsQ+LG91B5ISvicNZfn3gHLIOR+tsGwmK2Kw0AAARESURBVGU5sTzP05+OQKkv9t1Uv9zSmirP/L4BGluuXppmrB9leq4ujpVpPuXpIxfnRw7xSavF7DjRZ88c8mVCJu+SpE+9HIv4fRwrA3RJ49PHNFkJ4CBZrtNXXY4nhuQC0pX3BjdD+m2WPkrCrAkQEKyW3FK+JO17ANRLpe7yUVBIXgulK228VlMOZLg1oeWY/vi/TIRItKzA22eusbB8vl0fq43VHWEGo/H6ED33ZGoDG53kmvnNg09ZPEPPeU0u10hTTlBRP6YSf5QVz6lz1Mmx51Eme/roMXvgfOufsRGJvKbP4GY60nK+tKtNsIfKZHLyC53oFpY7dWVl6krgkAwmCNJ78zemR4+murPd06fhYxVwar4I+lRZbfkZFDVHfFuejP98f3sIFjWcM+4RAj6N4guLbjf44b6+fonnkP6ppW0bH2U51x12pTJXPeYgfepy8ts7bZb+XECmnEQgEUgEzgGBzZA+nTH3jHkOHZx1TAQSgUQgIrAZ0k9LP3Z7nicCicBWEZiD9M96T3+rHZ/tTgQSgW0iMAfpg1zu6W9Tf7LViUAicGYIbIb06Zfc0z8z7czqJgKJwOwIbIb0c09/dt1JgYlAInCGCMxB+mezp58vJI1/AQndrr3wkvGJS+rFeY0r3/idOl+d/J4+s1vtDcn4VmPtnLf4eEuydm3pOMr2Lculy0r5j/4ZKnFIHPrqALxQezu6b/4p6caWTX3bvtszdBI4edKnQe+++27TrqGWiR++cqVwLN+PhA2tb6Y/L8sr++s8+4tPLPBZC8nvWLxgefLSUP3hP37ncNZjDlmHZDz9mcBDOSZe56t2fD+E+wJ8yAh/iYNvtqBEyPa/eCdWPbMnAonAwgjw2WPGLEaaPLEEP8g9lAEnXac7mz39OUDiGx5LuXy6aClkU24isDwCS1u+S3LPGHT8XPyYvEPzLMe6PWoi8EOXVH3S83U9/6KtR1UySSKQCJwQAuzR8w94uD7jfWg6uecUmsyOxDHrc62kz+dK79y5s0jHvvbaa6fQn1mHRCARGIGAlv4ShE91jmlZH2o+D8VshvQBg/26Jdwcz88uUa+UmQgkAv0QmOtxyLK0qf/EVsqbGuZf4/wTm6my+uS/VkufCvJPW9y0meu79D5ClXv6fbo/0yQCp40Af6jDmMYSnnrAMUwk3MSdKmup/PLXkr1y7aS/ZONSdiKQCCQCicA+Akn6+3hkKBFIBBKBVSOQpL/q7s3GJQKJQCKwj0CS/j4eGUoEEoFEYNUIJOmvunuzcYlAIpAI7COQpL+PR4YSgUQgEVg1Akn6q+7ebFwikAgkAvsIJOnv45GhRCARSARWjUCS/qq7NxuXCCQCicA+Akn6+3hkKBFIBBKBVSOQpL/q7s3GJQKJQCKwj0CS/j4eGUoEEoFEYNUIJOmvunuzcYlAIpAI7COQpL+PR4YSgUQgEVg1Av8HaGUTGW15GoUAAAAASUVORK5CYII=;" parent="1" vertex="1">
          <mxGeometry x="250" y="40" width="381" height="143" as="geometry" />
        </mxCell>
        <mxCell id="zqUgVHbuWuNYpNrLX5ac-4" value="互联网" style="ellipse;shape=cloud;whiteSpace=wrap;html=1;opacity=50;" parent="1" vertex="1">
          <mxGeometry x="60" y="220" width="120" height="80" as="geometry" />
        </mxCell>
        <mxCell id="zqUgVHbuWuNYpNrLX5ac-7" value="" style="endArrow=classic;html=1;entryX=0.875;entryY=0.5;entryDx=0;entryDy=0;entryPerimeter=0;exitX=0.5;exitY=1;exitDx=0;exitDy=0;" parent="1" source="zqUgVHbuWuNYpNrLX5ac-8" target="zqUgVHbuWuNYpNrLX5ac-4" edge="1">
          <mxGeometry width="50" height="50" relative="1" as="geometry">
            <mxPoint x="330" y="260" as="sourcePoint" />
            <mxPoint x="440" y="240" as="targetPoint" />
          </mxGeometry>
        </mxCell>
        <mxCell id="zqUgVHbuWuNYpNrLX5ac-8" value="" style="rounded=0;whiteSpace=wrap;html=1;opacity=50;fillColor=#f8cecc;strokeColor=#b85450;" parent="1" vertex="1">
          <mxGeometry x="300" y="100" width="30" height="60" as="geometry" />
        </mxCell>
        <mxCell id="zqUgVHbuWuNYpNrLX5ac-9" value="" style="rounded=0;whiteSpace=wrap;html=1;opacity=50;fillColor=#d5e8d4;strokeColor=#82b366;" parent="1" vertex="1">
          <mxGeometry x="330" y="130" width="76" height="20" as="geometry" />
        </mxCell>
        <mxCell id="zqUgVHbuWuNYpNrLX5ac-10" value="" style="fontColor=#0066CC;verticalAlign=top;verticalLabelPosition=bottom;labelPosition=center;align=center;html=1;outlineConnect=0;fillColor=#CCCCCC;strokeColor=#6881B3;gradientColor=none;gradientDirection=north;strokeWidth=2;shape=mxgraph.networks.security_camera;opacity=50;" parent="1" vertex="1">
          <mxGeometry x="590" y="220" width="100" height="75" as="geometry" />
        </mxCell>
        <mxCell id="zqUgVHbuWuNYpNrLX5ac-11" value="" style="fontColor=#0066CC;verticalAlign=top;verticalLabelPosition=bottom;labelPosition=center;align=center;html=1;outlineConnect=0;fillColor=#CCCCCC;strokeColor=#6881B3;gradientColor=none;gradientDirection=north;strokeWidth=2;shape=mxgraph.networks.security_camera;opacity=50;" parent="1" vertex="1">
          <mxGeometry x="590" y="330" width="100" height="75" as="geometry" />
        </mxCell>
        <mxCell id="zqUgVHbuWuNYpNrLX5ac-12" value="" style="endArrow=classic;html=1;exitX=0.75;exitY=1;exitDx=0;exitDy=0;" parent="1" source="zqUgVHbuWuNYpNrLX5ac-9" target="zqUgVHbuWuNYpNrLX5ac-10" edge="1">
          <mxGeometry width="50" height="50" relative="1" as="geometry">
            <mxPoint x="390" y="200" as="sourcePoint" />
            <mxPoint x="440" y="150" as="targetPoint" />
          </mxGeometry>
        </mxCell>
        <mxCell id="zqUgVHbuWuNYpNrLX5ac-13" value="" style="endArrow=classic;html=1;exitX=0.75;exitY=1;exitDx=0;exitDy=0;" parent="1" source="zqUgVHbuWuNYpNrLX5ac-9" target="zqUgVHbuWuNYpNrLX5ac-11" edge="1">
          <mxGeometry width="50" height="50" relative="1" as="geometry">
            <mxPoint x="390" y="200" as="sourcePoint" />
            <mxPoint x="440" y="150" as="targetPoint" />
          </mxGeometry>
        </mxCell>
        <mxCell id="KJsByg47zikV8RwF4oTN-1" value="客户经理、客户工程师、CTO等" style="shape=umlActor;verticalLabelPosition=bottom;verticalAlign=top;html=1;" parent="1" vertex="1">
          <mxGeometry x="70" y="600" width="30" height="50" as="geometry" />
        </mxCell>
        <mxCell id="KJsByg47zikV8RwF4oTN-5" value="发现商机" style="ellipse;whiteSpace=wrap;html=1;verticalAlign=top;" parent="1" vertex="1">
          <mxGeometry x="380" y="600" width="110" height="30" as="geometry" />
        </mxCell>
        <mxCell id="KJsByg47zikV8RwF4oTN-6" value="商机挖掘" style="ellipse;whiteSpace=wrap;html=1;verticalAlign=top;" parent="1" vertex="1">
          <mxGeometry x="220" y="600" width="110" height="30" as="geometry" />
        </mxCell>
        <mxCell id="KJsByg47zikV8RwF4oTN-7" value="" style="endArrow=classic;html=1;exitX=1;exitY=0.3333333333333333;exitDx=0;exitDy=0;exitPerimeter=0;entryX=0;entryY=0.5;entryDx=0;entryDy=0;" parent="1" source="KJsByg47zikV8RwF4oTN-1" target="KJsByg47zikV8RwF4oTN-6" edge="1">
          <mxGeometry width="50" height="50" relative="1" as="geometry">
            <mxPoint x="390" y="820" as="sourcePoint" />
            <mxPoint x="440" y="770" as="targetPoint" />
          </mxGeometry>
        </mxCell>
        <mxCell id="KJsByg47zikV8RwF4oTN-8" value="" style="endArrow=classic;html=1;entryX=0;entryY=0.5;entryDx=0;entryDy=0;exitX=1;exitY=0.5;exitDx=0;exitDy=0;" parent="1" source="KJsByg47zikV8RwF4oTN-6" target="KJsByg47zikV8RwF4oTN-5" edge="1">
          <mxGeometry width="50" height="50" relative="1" as="geometry">
            <mxPoint x="390" y="820" as="sourcePoint" />
            <mxPoint x="440" y="770" as="targetPoint" />
          </mxGeometry>
        </mxCell>
        <mxCell id="KJsByg47zikV8RwF4oTN-9" value="填报商机系统" style="ellipse;whiteSpace=wrap;html=1;verticalAlign=top;" parent="1" vertex="1">
          <mxGeometry x="570" y="600" width="110" height="30" as="geometry" />
        </mxCell>
        <mxCell id="KJsByg47zikV8RwF4oTN-10" value="" style="endArrow=classic;html=1;entryX=0;entryY=0.5;entryDx=0;entryDy=0;exitX=1;exitY=0.5;exitDx=0;exitDy=0;" parent="1" source="KJsByg47zikV8RwF4oTN-5" target="KJsByg47zikV8RwF4oTN-9" edge="1">
          <mxGeometry width="50" height="50" relative="1" as="geometry">
            <mxPoint x="390" y="820" as="sourcePoint" />
            <mxPoint x="440" y="770" as="targetPoint" />
          </mxGeometry>
        </mxCell>
        <mxCell id="KJsByg47zikV8RwF4oTN-11" value="&lt;br&gt;商机流失？" style="rhombus;whiteSpace=wrap;html=1;verticalAlign=top;" parent="1" vertex="1">
          <mxGeometry x="575" y="660" width="100" height="50" as="geometry" />
        </mxCell>
        <mxCell id="KJsByg47zikV8RwF4oTN-12" value="" style="endArrow=classic;html=1;entryX=0.5;entryY=0;entryDx=0;entryDy=0;exitX=0.5;exitY=1;exitDx=0;exitDy=0;" parent="1" source="KJsByg47zikV8RwF4oTN-9" target="KJsByg47zikV8RwF4oTN-11" edge="1">
          <mxGeometry width="50" height="50" relative="1" as="geometry">
            <mxPoint x="390" y="820" as="sourcePoint" />
            <mxPoint x="440" y="770" as="targetPoint" />
          </mxGeometry>
        </mxCell>
        <mxCell id="KJsByg47zikV8RwF4oTN-14" value="是" style="text;html=1;align=center;verticalAlign=middle;resizable=0;points=[];autosize=1;strokeColor=none;" parent="1" vertex="1">
          <mxGeometry x="710" y="670" width="30" height="20" as="geometry" />
        </mxCell>
        <mxCell id="KJsByg47zikV8RwF4oTN-15" value="签订合同" style="ellipse;whiteSpace=wrap;html=1;verticalAlign=top;" parent="1" vertex="1">
          <mxGeometry x="570" y="780" width="110" height="30" as="geometry" />
        </mxCell>
        <mxCell id="KJsByg47zikV8RwF4oTN-16" value="" style="endArrow=classic;html=1;exitX=0.5;exitY=1;exitDx=0;exitDy=0;entryX=0.5;entryY=0;entryDx=0;entryDy=0;" parent="1" source="KJsByg47zikV8RwF4oTN-11" target="KJsByg47zikV8RwF4oTN-68" edge="1">
          <mxGeometry width="50" height="50" relative="1" as="geometry">
            <mxPoint x="430" y="850" as="sourcePoint" />
            <mxPoint x="625" y="740" as="targetPoint" />
          </mxGeometry>
        </mxCell>
        <mxCell id="KJsByg47zikV8RwF4oTN-17" value="否" style="text;html=1;align=center;verticalAlign=middle;resizable=0;points=[];autosize=1;strokeColor=none;" parent="1" vertex="1">
          <mxGeometry x="625" y="710" width="30" height="20" as="geometry" />
        </mxCell>
        <mxCell id="KJsByg47zikV8RwF4oTN-19" value="&lt;br&gt;涉及采购？" style="rhombus;whiteSpace=wrap;html=1;verticalAlign=top;" parent="1" vertex="1">
          <mxGeometry x="575" y="840" width="100" height="50" as="geometry" />
        </mxCell>
        <mxCell id="KJsByg47zikV8RwF4oTN-20" value="" style="endArrow=classic;html=1;entryX=0.5;entryY=0;entryDx=0;entryDy=0;exitX=0.5;exitY=1;exitDx=0;exitDy=0;" parent="1" source="KJsByg47zikV8RwF4oTN-15" target="KJsByg47zikV8RwF4oTN-19" edge="1">
          <mxGeometry width="50" height="50" relative="1" as="geometry">
            <mxPoint x="635" y="750" as="sourcePoint" />
            <mxPoint x="635" y="820" as="targetPoint" />
          </mxGeometry>
        </mxCell>
        <mxCell id="KJsByg47zikV8RwF4oTN-21" value="商机系统上单" style="ellipse;whiteSpace=wrap;html=1;verticalAlign=top;" parent="1" vertex="1">
          <mxGeometry x="570" y="1010" width="110" height="30" as="geometry" />
        </mxCell>
        <mxCell id="KJsByg47zikV8RwF4oTN-22" value="&lt;br&gt;框架采购？" style="rhombus;whiteSpace=wrap;html=1;verticalAlign=top;" parent="1" vertex="1">
          <mxGeometry x="575" y="920" width="100" height="50" as="geometry" />
        </mxCell>
        <mxCell id="KJsByg47zikV8RwF4oTN-23" value="" style="endArrow=classic;html=1;entryX=0.5;entryY=0;entryDx=0;entryDy=0;exitX=0.5;exitY=1;exitDx=0;exitDy=0;" parent="1" source="KJsByg47zikV8RwF4oTN-19" target="KJsByg47zikV8RwF4oTN-22" edge="1">
          <mxGeometry width="50" height="50" relative="1" as="geometry">
            <mxPoint x="390" y="920" as="sourcePoint" />
            <mxPoint x="440" y="870" as="targetPoint" />
          </mxGeometry>
        </mxCell>
        <mxCell id="KJsByg47zikV8RwF4oTN-24" value="是" style="text;html=1;align=center;verticalAlign=middle;resizable=0;points=[];autosize=1;strokeColor=none;" parent="1" vertex="1">
          <mxGeometry x="631" y="900" width="30" height="20" as="geometry" />
        </mxCell>
        <mxCell id="KJsByg47zikV8RwF4oTN-25" value="第三方招标" style="ellipse;whiteSpace=wrap;html=1;verticalAlign=top;" parent="1" vertex="1">
          <mxGeometry x="430" y="1010" width="110" height="30" as="geometry" />
        </mxCell>
        <mxCell id="KJsByg47zikV8RwF4oTN-26" value="&lt;br&gt;涉及第三&lt;br&gt;方施工？" style="rhombus;whiteSpace=wrap;html=1;verticalAlign=top;" parent="1" vertex="1">
          <mxGeometry x="430" y="835" width="100" height="60" as="geometry" />
        </mxCell>
        <mxCell id="KJsByg47zikV8RwF4oTN-29" value="" style="endArrow=classic;html=1;entryX=0.5;entryY=0;entryDx=0;entryDy=0;exitX=0.5;exitY=1;exitDx=0;exitDy=0;" parent="1" source="KJsByg47zikV8RwF4oTN-22" target="KJsByg47zikV8RwF4oTN-21" edge="1">
          <mxGeometry width="50" height="50" relative="1" as="geometry">
            <mxPoint x="635" y="900" as="sourcePoint" />
            <mxPoint x="635" y="930" as="targetPoint" />
          </mxGeometry>
        </mxCell>
        <mxCell id="KJsByg47zikV8RwF4oTN-30" value="是" style="text;html=1;align=center;verticalAlign=middle;resizable=0;points=[];autosize=1;strokeColor=none;" parent="1" vertex="1">
          <mxGeometry x="631" y="980" width="30" height="20" as="geometry" />
        </mxCell>
        <mxCell id="KJsByg47zikV8RwF4oTN-31" value="采购系统上单" style="ellipse;whiteSpace=wrap;html=1;verticalAlign=top;" parent="1" vertex="1">
          <mxGeometry x="570" y="1070" width="110" height="30" as="geometry" />
        </mxCell>
        <mxCell id="KJsByg47zikV8RwF4oTN-33" value="" style="endArrow=classic;html=1;entryX=0.5;entryY=0;entryDx=0;entryDy=0;exitX=0.5;exitY=1;exitDx=0;exitDy=0;" parent="1" source="KJsByg47zikV8RwF4oTN-21" target="KJsByg47zikV8RwF4oTN-31" edge="1">
          <mxGeometry width="50" height="50" relative="1" as="geometry">
            <mxPoint x="340" y="625" as="sourcePoint" />
            <mxPoint x="390" y="625" as="targetPoint" />
          </mxGeometry>
        </mxCell>
        <mxCell id="KJsByg47zikV8RwF4oTN-34" value="" style="endArrow=classic;html=1;exitX=1;exitY=0.5;exitDx=0;exitDy=0;entryX=1;entryY=0.5;entryDx=0;entryDy=0;" parent="1" source="KJsByg47zikV8RwF4oTN-22" target="KJsByg47zikV8RwF4oTN-31" edge="1">
          <mxGeometry width="50" height="50" relative="1" as="geometry">
            <mxPoint x="720" y="1030" as="sourcePoint" />
            <mxPoint x="725" y="930" as="targetPoint" />
            <Array as="points">
              <mxPoint x="760" y="945" />
              <mxPoint x="760" y="1085" />
            </Array>
          </mxGeometry>
        </mxCell>
        <mxCell id="KJsByg47zikV8RwF4oTN-35" value="否" style="text;html=1;align=center;verticalAlign=middle;resizable=0;points=[];autosize=1;strokeColor=none;" parent="1" vertex="1">
          <mxGeometry x="730" y="1010" width="30" height="20" as="geometry" />
        </mxCell>
        <mxCell id="KJsByg47zikV8RwF4oTN-36" value="" style="endArrow=classic;html=1;entryX=0.5;entryY=0;entryDx=0;entryDy=0;exitX=0;exitY=0.5;exitDx=0;exitDy=0;" parent="1" source="KJsByg47zikV8RwF4oTN-15" target="KJsByg47zikV8RwF4oTN-26" edge="1">
          <mxGeometry width="50" height="50" relative="1" as="geometry">
            <mxPoint x="390" y="920" as="sourcePoint" />
            <mxPoint x="440" y="870" as="targetPoint" />
            <Array as="points">
              <mxPoint x="480" y="795" />
            </Array>
          </mxGeometry>
        </mxCell>
        <mxCell id="KJsByg47zikV8RwF4oTN-37" value="" style="endArrow=classic;html=1;entryX=1;entryY=0.5;entryDx=0;entryDy=0;exitX=0;exitY=0.5;exitDx=0;exitDy=0;" parent="1" source="KJsByg47zikV8RwF4oTN-19" target="KJsByg47zikV8RwF4oTN-26" edge="1">
          <mxGeometry width="50" height="50" relative="1" as="geometry">
            <mxPoint x="570" y="890" as="sourcePoint" />
            <mxPoint x="695" y="760" as="targetPoint" />
            <Array as="points" />
          </mxGeometry>
        </mxCell>
        <mxCell id="KJsByg47zikV8RwF4oTN-38" value="否" style="text;html=1;align=center;verticalAlign=middle;resizable=0;points=[];autosize=1;strokeColor=none;" parent="1" vertex="1">
          <mxGeometry x="540" y="845" width="30" height="20" as="geometry" />
        </mxCell>
        <mxCell id="KJsByg47zikV8RwF4oTN-39" value="更新商机系统" style="ellipse;whiteSpace=wrap;html=1;verticalAlign=top;" parent="1" vertex="1">
          <mxGeometry x="700" y="600" width="110" height="30" as="geometry" />
        </mxCell>
        <mxCell id="KJsByg47zikV8RwF4oTN-40" value="" style="endArrow=classic;html=1;entryX=0.5;entryY=1;entryDx=0;entryDy=0;exitX=1;exitY=0.5;exitDx=0;exitDy=0;" parent="1" source="KJsByg47zikV8RwF4oTN-11" target="KJsByg47zikV8RwF4oTN-39" edge="1">
          <mxGeometry width="50" height="50" relative="1" as="geometry">
            <mxPoint x="410" y="750" as="sourcePoint" />
            <mxPoint x="460" y="700" as="targetPoint" />
            <Array as="points">
              <mxPoint x="755" y="690" />
            </Array>
          </mxGeometry>
        </mxCell>
        <mxCell id="KJsByg47zikV8RwF4oTN-41" value="结束" style="rounded=0;whiteSpace=wrap;html=1;verticalAlign=top;" parent="1" vertex="1">
          <mxGeometry x="720" y="470" width="70" height="30" as="geometry" />
        </mxCell>
        <mxCell id="KJsByg47zikV8RwF4oTN-42" value="" style="endArrow=classic;html=1;exitX=0.5;exitY=0;exitDx=0;exitDy=0;" parent="1" source="KJsByg47zikV8RwF4oTN-39" edge="1">
          <mxGeometry width="50" height="50" relative="1" as="geometry">
            <mxPoint x="500" y="560" as="sourcePoint" />
            <mxPoint x="755" y="560" as="targetPoint" />
          </mxGeometry>
        </mxCell>
        <mxCell id="KJsByg47zikV8RwF4oTN-43" value="采购" style="ellipse;whiteSpace=wrap;html=1;verticalAlign=top;" parent="1" vertex="1">
          <mxGeometry x="570" y="1120" width="110" height="30" as="geometry" />
        </mxCell>
        <mxCell id="KJsByg47zikV8RwF4oTN-45" value="" style="endArrow=classic;html=1;entryX=0.5;entryY=0;entryDx=0;entryDy=0;exitX=0.5;exitY=1;exitDx=0;exitDy=0;" parent="1" source="KJsByg47zikV8RwF4oTN-31" target="KJsByg47zikV8RwF4oTN-43" edge="1">
          <mxGeometry width="50" height="50" relative="1" as="geometry">
            <mxPoint x="560" y="1110" as="sourcePoint" />
            <mxPoint x="635" y="1020" as="targetPoint" />
          </mxGeometry>
        </mxCell>
        <mxCell id="KJsByg47zikV8RwF4oTN-46" value="&lt;br&gt;涉及第三&lt;br&gt;方招标？" style="rhombus;whiteSpace=wrap;html=1;verticalAlign=top;" parent="1" vertex="1">
          <mxGeometry x="430" y="920" width="100" height="60" as="geometry" />
        </mxCell>
        <mxCell id="KJsByg47zikV8RwF4oTN-48" value="" style="endArrow=classic;html=1;entryX=0.5;entryY=0;entryDx=0;entryDy=0;exitX=0.5;exitY=1;exitDx=0;exitDy=0;" parent="1" source="KJsByg47zikV8RwF4oTN-26" target="KJsByg47zikV8RwF4oTN-46" edge="1">
          <mxGeometry width="50" height="50" relative="1" as="geometry">
            <mxPoint x="90" y="800" as="sourcePoint" />
            <mxPoint x="140" y="750" as="targetPoint" />
          </mxGeometry>
        </mxCell>
        <mxCell id="KJsByg47zikV8RwF4oTN-49" value="是" style="text;html=1;align=center;verticalAlign=middle;resizable=0;points=[];autosize=1;strokeColor=none;" parent="1" vertex="1">
          <mxGeometry x="490" y="895" width="30" height="20" as="geometry" />
        </mxCell>
        <mxCell id="KJsByg47zikV8RwF4oTN-50" value="确定施工队" style="ellipse;whiteSpace=wrap;html=1;verticalAlign=top;" parent="1" vertex="1">
          <mxGeometry x="290" y="935" width="110" height="30" as="geometry" />
        </mxCell>
        <mxCell id="KJsByg47zikV8RwF4oTN-51" value="" style="endArrow=classic;html=1;exitX=0.5;exitY=1;exitDx=0;exitDy=0;" parent="1" source="KJsByg47zikV8RwF4oTN-46" edge="1">
          <mxGeometry width="50" height="50" relative="1" as="geometry">
            <mxPoint x="90" y="800" as="sourcePoint" />
            <mxPoint x="480" y="1010" as="targetPoint" />
          </mxGeometry>
        </mxCell>
        <mxCell id="KJsByg47zikV8RwF4oTN-52" value="是" style="text;html=1;align=center;verticalAlign=middle;resizable=0;points=[];autosize=1;strokeColor=none;" parent="1" vertex="1">
          <mxGeometry x="480" y="980" width="30" height="20" as="geometry" />
        </mxCell>
        <mxCell id="KJsByg47zikV8RwF4oTN-53" value="" style="endArrow=classic;html=1;entryX=1;entryY=0.5;entryDx=0;entryDy=0;exitX=0;exitY=0.5;exitDx=0;exitDy=0;" parent="1" source="KJsByg47zikV8RwF4oTN-46" target="KJsByg47zikV8RwF4oTN-50" edge="1">
          <mxGeometry width="50" height="50" relative="1" as="geometry">
            <mxPoint x="90" y="800" as="sourcePoint" />
            <mxPoint x="140" y="750" as="targetPoint" />
          </mxGeometry>
        </mxCell>
        <mxCell id="KJsByg47zikV8RwF4oTN-54" value="" style="endArrow=classic;html=1;entryX=0.5;entryY=1;entryDx=0;entryDy=0;exitX=0;exitY=0.5;exitDx=0;exitDy=0;" parent="1" source="KJsByg47zikV8RwF4oTN-25" target="KJsByg47zikV8RwF4oTN-50" edge="1">
          <mxGeometry width="50" height="50" relative="1" as="geometry">
            <mxPoint x="90" y="800" as="sourcePoint" />
            <mxPoint x="140" y="750" as="targetPoint" />
            <Array as="points">
              <mxPoint x="345" y="1025" />
            </Array>
          </mxGeometry>
        </mxCell>
        <mxCell id="KJsByg47zikV8RwF4oTN-55" value="否" style="text;html=1;align=center;verticalAlign=middle;resizable=0;points=[];autosize=1;strokeColor=none;" parent="1" vertex="1">
          <mxGeometry x="406" y="920" width="30" height="20" as="geometry" />
        </mxCell>
        <mxCell id="KJsByg47zikV8RwF4oTN-56" value="&lt;br&gt;涉及我方施工？" style="rhombus;whiteSpace=wrap;html=1;verticalAlign=top;" parent="1" vertex="1">
          <mxGeometry x="294" y="835" width="106" height="60" as="geometry" />
        </mxCell>
        <mxCell id="KJsByg47zikV8RwF4oTN-57" value="" style="endArrow=classic;html=1;entryX=1;entryY=0.5;entryDx=0;entryDy=0;exitX=0;exitY=0.5;exitDx=0;exitDy=0;" parent="1" source="KJsByg47zikV8RwF4oTN-26" target="KJsByg47zikV8RwF4oTN-56" edge="1">
          <mxGeometry width="50" height="50" relative="1" as="geometry">
            <mxPoint x="90" y="800" as="sourcePoint" />
            <mxPoint x="140" y="750" as="targetPoint" />
          </mxGeometry>
        </mxCell>
        <mxCell id="KJsByg47zikV8RwF4oTN-58" value="否" style="text;html=1;align=center;verticalAlign=middle;resizable=0;points=[];autosize=1;strokeColor=none;" parent="1" vertex="1">
          <mxGeometry x="400" y="845" width="30" height="20" as="geometry" />
        </mxCell>
        <mxCell id="KJsByg47zikV8RwF4oTN-59" value="" style="endArrow=classic;html=1;entryX=0.5;entryY=0;entryDx=0;entryDy=0;exitX=0.5;exitY=1;exitDx=0;exitDy=0;" parent="1" source="KJsByg47zikV8RwF4oTN-56" target="KJsByg47zikV8RwF4oTN-50" edge="1">
          <mxGeometry width="50" height="50" relative="1" as="geometry">
            <mxPoint x="90" y="800" as="sourcePoint" />
            <mxPoint x="140" y="750" as="targetPoint" />
          </mxGeometry>
        </mxCell>
        <mxCell id="KJsByg47zikV8RwF4oTN-60" value="是" style="text;html=1;align=center;verticalAlign=middle;resizable=0;points=[];autosize=1;strokeColor=none;" parent="1" vertex="1">
          <mxGeometry x="350" y="900" width="30" height="20" as="geometry" />
        </mxCell>
        <mxCell id="KJsByg47zikV8RwF4oTN-61" value="物资管理" style="ellipse;whiteSpace=wrap;html=1;verticalAlign=top;" parent="1" vertex="1">
          <mxGeometry x="290" y="1120" width="110" height="30" as="geometry" />
        </mxCell>
        <mxCell id="KJsByg47zikV8RwF4oTN-62" value="" style="endArrow=classic;html=1;entryX=1;entryY=0.5;entryDx=0;entryDy=0;exitX=0;exitY=0.5;exitDx=0;exitDy=0;" parent="1" source="KJsByg47zikV8RwF4oTN-43" target="KJsByg47zikV8RwF4oTN-61" edge="1">
          <mxGeometry width="50" height="50" relative="1" as="geometry">
            <mxPoint x="90" y="800" as="sourcePoint" />
            <mxPoint x="140" y="750" as="targetPoint" />
          </mxGeometry>
        </mxCell>
        <mxCell id="KJsByg47zikV8RwF4oTN-63" value="实施施工" style="ellipse;whiteSpace=wrap;html=1;verticalAlign=top;" parent="1" vertex="1">
          <mxGeometry x="150" y="935" width="110" height="30" as="geometry" />
        </mxCell>
        <mxCell id="KJsByg47zikV8RwF4oTN-64" value="" style="endArrow=classic;html=1;exitX=0;exitY=0.5;exitDx=0;exitDy=0;" parent="1" source="KJsByg47zikV8RwF4oTN-50" edge="1">
          <mxGeometry width="50" height="50" relative="1" as="geometry">
            <mxPoint x="90" y="800" as="sourcePoint" />
            <mxPoint x="260" y="950" as="targetPoint" />
          </mxGeometry>
        </mxCell>
        <mxCell id="KJsByg47zikV8RwF4oTN-65" value="" style="endArrow=classic;html=1;entryX=0.5;entryY=1;entryDx=0;entryDy=0;exitX=0;exitY=0.5;exitDx=0;exitDy=0;" parent="1" source="KJsByg47zikV8RwF4oTN-61" target="KJsByg47zikV8RwF4oTN-63" edge="1">
          <mxGeometry width="50" height="50" relative="1" as="geometry">
            <mxPoint x="90" y="800" as="sourcePoint" />
            <mxPoint x="140" y="750" as="targetPoint" />
            <Array as="points">
              <mxPoint x="205" y="1135" />
            </Array>
          </mxGeometry>
        </mxCell>
        <mxCell id="KJsByg47zikV8RwF4oTN-66" value="文档更新" style="ellipse;whiteSpace=wrap;html=1;verticalAlign=top;" parent="1" vertex="1">
          <mxGeometry x="150" y="870" width="110" height="30" as="geometry" />
        </mxCell>
        <mxCell id="KJsByg47zikV8RwF4oTN-67" value="合同结束" style="ellipse;whiteSpace=wrap;html=1;verticalAlign=top;" parent="1" vertex="1">
          <mxGeometry x="150" y="760" width="110" height="30" as="geometry" />
        </mxCell>
        <mxCell id="KJsByg47zikV8RwF4oTN-68" value="方案整理" style="ellipse;whiteSpace=wrap;html=1;verticalAlign=top;" parent="1" vertex="1">
          <mxGeometry x="570" y="730" width="110" height="30" as="geometry" />
        </mxCell>
        <mxCell id="KJsByg47zikV8RwF4oTN-70" value="" style="endArrow=classic;html=1;entryX=0.5;entryY=0;entryDx=0;entryDy=0;exitX=0.5;exitY=1;exitDx=0;exitDy=0;" parent="1" source="KJsByg47zikV8RwF4oTN-68" target="KJsByg47zikV8RwF4oTN-15" edge="1">
          <mxGeometry width="50" height="50" relative="1" as="geometry">
            <mxPoint x="90" y="800" as="sourcePoint" />
            <mxPoint x="140" y="750" as="targetPoint" />
          </mxGeometry>
        </mxCell>
        <mxCell id="KJsByg47zikV8RwF4oTN-71" value="交付" style="ellipse;whiteSpace=wrap;html=1;verticalAlign=top;" parent="1" vertex="1">
          <mxGeometry x="150" y="815" width="110" height="30" as="geometry" />
        </mxCell>
        <mxCell id="KJsByg47zikV8RwF4oTN-72" value="更新商机系统" style="ellipse;whiteSpace=wrap;html=1;verticalAlign=top;" parent="1" vertex="1">
          <mxGeometry x="150" y="700" width="110" height="30" as="geometry" />
        </mxCell>
        <mxCell id="KJsByg47zikV8RwF4oTN-73" value="结束" style="rounded=0;whiteSpace=wrap;html=1;verticalAlign=top;" parent="1" vertex="1">
          <mxGeometry x="30" y="815" width="70" height="30" as="geometry" />
        </mxCell>
        <mxCell id="KJsByg47zikV8RwF4oTN-76" value="" style="endArrow=classic;html=1;entryX=1;entryY=0.5;entryDx=0;entryDy=0;exitX=0;exitY=0.5;exitDx=0;exitDy=0;" parent="1" source="KJsByg47zikV8RwF4oTN-72" target="KJsByg47zikV8RwF4oTN-82" edge="1">
          <mxGeometry width="50" height="50" relative="1" as="geometry">
            <mxPoint x="260" y="550" as="sourcePoint" />
            <mxPoint x="310" y="500" as="targetPoint" />
          </mxGeometry>
        </mxCell>
        <mxCell id="KJsByg47zikV8RwF4oTN-77" value="" style="endArrow=classic;html=1;exitX=0.5;exitY=0;exitDx=0;exitDy=0;entryX=0.5;entryY=1;entryDx=0;entryDy=0;" parent="1" source="KJsByg47zikV8RwF4oTN-63" target="KJsByg47zikV8RwF4oTN-66" edge="1">
          <mxGeometry width="50" height="50" relative="1" as="geometry">
            <mxPoint x="320" y="710" as="sourcePoint" />
            <mxPoint x="370" y="660" as="targetPoint" />
          </mxGeometry>
        </mxCell>
        <mxCell id="KJsByg47zikV8RwF4oTN-78" value="" style="endArrow=classic;html=1;entryX=0.5;entryY=1;entryDx=0;entryDy=0;exitX=0.5;exitY=0;exitDx=0;exitDy=0;" parent="1" source="KJsByg47zikV8RwF4oTN-67" target="KJsByg47zikV8RwF4oTN-72" edge="1">
          <mxGeometry width="50" height="50" relative="1" as="geometry">
            <mxPoint x="320" y="710" as="sourcePoint" />
            <mxPoint x="370" y="660" as="targetPoint" />
          </mxGeometry>
        </mxCell>
        <mxCell id="KJsByg47zikV8RwF4oTN-79" value="" style="endArrow=classic;html=1;entryX=0.5;entryY=1;entryDx=0;entryDy=0;exitX=0.5;exitY=0;exitDx=0;exitDy=0;" parent="1" source="KJsByg47zikV8RwF4oTN-71" target="KJsByg47zikV8RwF4oTN-67" edge="1">
          <mxGeometry width="50" height="50" relative="1" as="geometry">
            <mxPoint x="330" y="720" as="sourcePoint" />
            <mxPoint x="380" y="670" as="targetPoint" />
          </mxGeometry>
        </mxCell>
        <mxCell id="KJsByg47zikV8RwF4oTN-80" value="" style="endArrow=classic;html=1;entryX=0.5;entryY=1;entryDx=0;entryDy=0;exitX=0.5;exitY=0;exitDx=0;exitDy=0;" parent="1" source="KJsByg47zikV8RwF4oTN-66" target="KJsByg47zikV8RwF4oTN-71" edge="1">
          <mxGeometry width="50" height="50" relative="1" as="geometry">
            <mxPoint x="340" y="730" as="sourcePoint" />
            <mxPoint x="390" y="680" as="targetPoint" />
          </mxGeometry>
        </mxCell>
        <mxCell id="KJsByg47zikV8RwF4oTN-82" value="成功案例总结" style="ellipse;whiteSpace=wrap;html=1;verticalAlign=top;" parent="1" vertex="1">
          <mxGeometry x="10" y="700" width="110" height="30" as="geometry" />
        </mxCell>
        <mxCell id="KJsByg47zikV8RwF4oTN-83" value="失败案例总结" style="ellipse;whiteSpace=wrap;html=1;verticalAlign=top;" parent="1" vertex="1">
          <mxGeometry x="700" y="530" width="110" height="30" as="geometry" />
        </mxCell>
        <mxCell id="KJsByg47zikV8RwF4oTN-84" value="" style="endArrow=classic;html=1;entryX=0.5;entryY=1;entryDx=0;entryDy=0;exitX=0.5;exitY=0;exitDx=0;exitDy=0;" parent="1" source="KJsByg47zikV8RwF4oTN-83" target="KJsByg47zikV8RwF4oTN-41" edge="1">
          <mxGeometry width="50" height="50" relative="1" as="geometry">
            <mxPoint x="270" y="560" as="sourcePoint" />
            <mxPoint x="320" y="510" as="targetPoint" />
          </mxGeometry>
        </mxCell>
        <mxCell id="KJsByg47zikV8RwF4oTN-85" value="" style="endArrow=classic;html=1;entryX=0.5;entryY=0;entryDx=0;entryDy=0;exitX=0.5;exitY=1;exitDx=0;exitDy=0;" parent="1" source="KJsByg47zikV8RwF4oTN-82" target="KJsByg47zikV8RwF4oTN-73" edge="1">
          <mxGeometry width="50" height="50" relative="1" as="geometry">
            <mxPoint x="90" y="760" as="sourcePoint" />
            <mxPoint x="320" y="510" as="targetPoint" />
          </mxGeometry>
        </mxCell>
        <mxCell id="KJsByg47zikV8RwF4oTN-86" value="" style="endArrow=classic;html=1;exitX=0;exitY=0.5;exitDx=0;exitDy=0;" parent="1" source="KJsByg47zikV8RwF4oTN-56" edge="1">
          <mxGeometry width="50" height="50" relative="1" as="geometry">
            <mxPoint x="320" y="530" as="sourcePoint" />
            <mxPoint x="260" y="950" as="targetPoint" />
            <Array as="points">
              <mxPoint x="270" y="865" />
              <mxPoint x="270" y="940" />
            </Array>
          </mxGeometry>
        </mxCell>
        <mxCell id="KJsByg47zikV8RwF4oTN-87" value="否" style="text;html=1;align=center;verticalAlign=middle;resizable=0;points=[];autosize=1;strokeColor=none;" parent="1" vertex="1">
          <mxGeometry x="270" y="845" width="30" height="20" as="geometry" />
        </mxCell>
      </root>
    </mxGraphModel>
  </diagram>
</mxfile>
